<svg xmlns="http://www.w3.org/2000/svg" viewBox="0 0 640 160" role="img" aria-labelledby="title desc">
  <title id="title">Dog TrainingK9 Dark Logo</title>
  <desc id="desc">Professional premium dark logo for Dog TrainingK9.</desc>
  <defs>
    <linearGradient id="crestWarmDark" x1="0" y1="0" x2="1" y2="1">
      <stop offset="0" stop-color="#f18a26"/>
      <stop offset="1" stop-color="#b34700"/>
    </linearGradient>
    <linearGradient id="steelDark" x1="0" y1="0" x2="1" y2="1">
      <stop offset="0" stop-color="#2a2a2a"/>
      <stop offset="1" stop-color="#070707"/>
    </linearGradient>
  </defs>

  <g transform="translate(16 16)">
    <path d="M62 0L112 20V68C112 100 93 121 62 128C31 121 12 100 12 68V20L62 0Z" fill="#f6f6f6"/>
    <path d="M62 6L106 24V66C106 95 89 114 62 121C35 114 18 95 18 66V24L62 6Z" fill="url(#crestWarmDark)"/>
    <path d="M62 18L90 30V61C90 79 79 92 62 98C45 92 34 79 34 61V30L62 18Z" fill="#f9f9f9" opacity="0.95"/>

    <path d="M62 36L71 50L62 46L53 50L62 36Z" fill="url(#steelDark)"/>
    <path d="M50 62C50 56 55 52 62 52C69 52 74 56 74 62C74 69 69 74 62 74C55 74 50 69 50 62Z" fill="url(#steelDark)"/>
    <rect x="59" y="73" width="6" height="12" rx="2" fill="url(#steelDark)"/>
    <path d="M43 91H81" stroke="#6b2c00" stroke-width="3" stroke-linecap="round"/>
  </g>

  <g transform="translate(150 20)">
    <text x="0" y="52" font-family="Teko, Oswald, sans-serif" font-size="54" font-weight="700" letter-spacing="1.2" fill="#101010">DOG TRAININGK9</text>
    <text x="2" y="88" font-family="Barlow, Segoe UI, sans-serif" font-size="16" font-weight="700" letter-spacing="4" fill="#c45500">K9 TRAINING AUTHORITY</text>
    <text x="2" y="111" font-family="Barlow, Segoe UI, sans-serif" font-size="11" font-weight="600" letter-spacing="3" fill="#4f4f4f">LOS ANGELES  |  SHERMAN OAKS  |  CALIFORNIA</text>
    <rect x="2" y="122" width="420" height="4" fill="url(#crestWarmDark)"/>
  </g>
</svg>



