<svg xmlns="http://www.w3.org/2000/svg" viewBox="0 0 640 160" role="img" aria-labelledby="title desc">
  <title id="title">Dog TrainingK9 Light Logo</title>
  <desc id="desc">Professional premium light logo for Dog TrainingK9.</desc>
  <defs>
    <linearGradient id="crestWarm" x1="0" y1="0" x2="1" y2="1">
      <stop offset="0" stop-color="#ffab4b"/>
      <stop offset="1" stop-color="#d85e00"/>
    </linearGradient>
    <linearGradient id="steelLight" x1="0" y1="0" x2="1" y2="1">
      <stop offset="0" stop-color="#f4f4f4"/>
      <stop offset="1" stop-color="#bdbdbd"/>
    </linearGradient>
  </defs>

  <g transform="translate(16 16)">
    <path d="M62 0L112 20V68C112 100 93 121 62 128C31 121 12 100 12 68V20L62 0Z" fill="#0d0d0d"/>
    <path d="M62 6L106 24V66C106 95 89 114 62 121C35 114 18 95 18 66V24L62 6Z" fill="url(#crestWarm)"/>
    <path d="M62 18L90 30V61C90 79 79 92 62 98C45 92 34 79 34 61V30L62 18Z" fill="#141414" opacity="0.95"/>

    <path d="M62 36L71 50L62 46L53 50L62 36Z" fill="url(#steelLight)"/>
    <path d="M50 62C50 56 55 52 62 52C69 52 74 56 74 62C74 69 69 74 62 74C55 74 50 69 50 62Z" fill="url(#steelLight)"/>
    <rect x="59" y="73" width="6" height="12" rx="2" fill="url(#steelLight)"/>
    <path d="M43 91H81" stroke="#ffd39b" stroke-width="3" stroke-linecap="round"/>
  </g>

  <g transform="translate(150 20)">
    <text x="0" y="52" font-family="Teko, Oswald, sans-serif" font-size="54" font-weight="700" letter-spacing="1.2" fill="#f8f8f8">DOG TRAININGK9</text>
    <text x="2" y="88" font-family="Barlow, Segoe UI, sans-serif" font-size="16" font-weight="700" letter-spacing="4" fill="#f4942f">K9 TRAINING AUTHORITY</text>
    <text x="2" y="111" font-family="Barlow, Segoe UI, sans-serif" font-size="11" font-weight="600" letter-spacing="3" fill="#b8b8b8">LOS ANGELES  |  SHERMAN OAKS  |  CALIFORNIA</text>
    <rect x="2" y="122" width="420" height="4" fill="url(#crestWarm)"/>
  </g>
</svg>



